<?xml version="1.0" encoding="UTF-8"?>
<svg id="Capa_1" xmlns="http://www.w3.org/2000/svg" xmlns:xlink="http://www.w3.org/1999/xlink" version="1.1" viewBox="0 0 357 272">
  <!-- Generator: Adobe Illustrator 29.6.1, SVG Export Plug-In . SVG Version: 2.1.1 Build 9)  -->
  <defs>
    <style>
      .st0, .st1, .st2 {
        fill: none;
      }

      .st3 {
        fill: #453581;
      }

      .st3, .st4, .st5, .st6, .st7, .st8, .st9, .st10, .st11, .st12, .st13, .st14, .st15, .st16, .st17, .st18, .st19, .st20, .st21, .st22, .st23, .st24, .st25, .st26, .st27, .st28, .st29, .st30, .st31, .st32, .st33, .st34, .st35, .st36, .st37, .st38, .st39, .st40, .st41, .st42, .st43, .st44, .st45, .st46, .st47, .st48, .st49, .st50, .st51, .st52, .st53, .st54, .st55, .st56, .st57, .st58, .st59, .st60, .st61, .st62, .st63, .st64, .st65, .st66, .st67, .st68, .st69, .st70, .st71, .st72, .st73, .st74, .st75, .st76, .st77, .st78, .st79, .st80, .st81, .st82, .st83, .st84, .st85, .st86, .st87, .st88, .st89, .st90, .st91, .st92, .st93, .st94, .st95, .st96, .st97, .st98, .st99, .st100, .st101, .st102, .st103, .st104, .st105, .st106, .st107, .st108 {
        isolation: isolate;
      }

      .st3, .st4, .st5, .st6, .st7, .st8, .st9, .st10, .st11, .st12, .st13, .st14, .st15, .st16, .st17, .st18, .st19, .st20, .st21, .st22, .st23, .st24, .st25, .st26, .st28, .st29, .st30, .st31, .st32, .st33, .st34, .st35, .st36, .st37, .st38, .st39, .st40, .st41, .st43, .st44, .st45, .st46, .st47, .st48, .st49, .st50, .st51, .st52, .st53, .st54, .st56, .st57, .st58, .st59, .st60, .st61, .st62, .st63, .st64, .st65, .st66, .st67, .st68, .st69, .st70, .st71, .st72, .st73, .st74, .st75, .st76, .st77, .st78, .st79, .st80, .st81, .st82, .st83, .st84, .st85, .st86, .st87, .st88, .st89, .st90, .st91, .st92, .st93, .st95, .st96, .st97, .st98, .st99, .st100, .st101, .st102, .st103, .st105, .st106, .st108 {
        opacity: .9;
      }

      .st4 {
        fill: #1f9e89;
      }

      .st5 {
        fill: #20a486;
      }

      .st6 {
        fill: #443b84;
      }

      .st7 {
        fill: #3e4a89;
      }

      .st8 {
        fill: #e4e419;
      }

      .st9 {
        fill: #61ca60;
      }

      .st10 {
        fill: #5bc863;
      }

      .st11 {
        fill: #ebe51a;
      }

      .st12 {
        fill: #20938c;
      }

      .st13 {
        fill: #481b6d;
      }

      .st14 {
        fill: #47c06f;
      }

      .st15 {
        fill: #404587;
      }

      .st16 {
        fill: #34608d;
      }

      .st109 {
        fill: #a50026;
      }

      .st17 {
        fill: #375b8d;
      }

      .st18 {
        fill: #4cc26c;
      }

      .st19 {
        fill: #29798e;
      }

      .st20 {
        fill: #238a8d;
      }

      .st21 {
        fill: #2d708e;
      }

      .st22 {
        fill: #453882;
      }

      .st23 {
        fill: #3d4d8a;
      }

      .st24 {
        fill: #1fa287;
      }

      .st25 {
        fill: #472f7c;
      }

      .st26 {
        fill: #38598c;
      }

      .st27 {
        font-family: Optima-Bold, Optima;
        font-weight: 700;
      }

      .st27, .st55, .st94, .st104, .st107 {
        font-size: 8px;
      }

      .st28 {
        fill: #2c718e;
      }

      .st29 {
        fill: #31688e;
      }

      .st30 {
        fill: #3f4788;
      }

      .st31 {
        fill: #1fa088;
      }

      .st1 {
        stroke: #999;
      }

      .st1, .st2 {
        stroke-linecap: round;
        stroke-linejoin: round;
        stroke-width: .75px;
      }

      .st32 {
        fill: #51c56a;
      }

      .st33 {
        fill: #33638d;
      }

      .st34 {
        fill: #7fd34e;
      }

      .st35 {
        fill: #287c8e;
      }

      .st36 {
        fill: #440154;
      }

      .st37 {
        fill: #277e8e;
      }

      .st38 {
        fill: #f7e620;
      }

      .st39 {
        fill: #2a768e;
      }

      .st110 {
        fill: #f46d43;
      }

      .st40 {
        fill: #481467;
      }

      .st41 {
        fill: #22a785;
      }

      .st43 {
        fill: #482878;
      }

      .st111 {
        fill: #313695;
      }

      .st44 {
        fill: #a7db35;
      }

      .st45 {
        fill: #481769;
      }

      .st46 {
        fill: #28ae80;
      }

      .st47 {
        fill: #471063;
      }

      .st48 {
        fill: #fde725;
      }

      .st49 {
        fill: #addc30;
      }

      .st112 {
        clip-path: url(#clippath-1);
      }

      .st50 {
        fill: #41be71;
      }

      .st51 {
        fill: #1e9b8a;
      }

      .st52 {
        fill: #bbde28;
      }

      .st53 {
        fill: #1f998a;
      }

      .st54 {
        fill: #46327e;
      }

      .st55 {
        letter-spacing: .01em;
      }

      .st55, .st94, .st104, .st107 {
        font-family: Optima-Regular, Optima;
      }

      .st56 {
        fill: #424186;
      }

      .st57 {
        fill: #3c508b;
      }

      .st58 {
        fill: #92d741;
      }

      .st59 {
        fill: #2e6d8e;
      }

      .st60 {
        fill: #228d8d;
      }

      .st61 {
        fill: #b4de2c;
      }

      .st62 {
        fill: #26828e;
      }

      .st63 {
        fill: #481e70;
      }

      .st64 {
        fill: #20928c;
      }

      .st65 {
        fill: #218f8d;
      }

      .st66 {
        fill: #470d60;
      }

      .st67 {
        fill: #25858e;
      }

      .st68 {
        fill: #2b748e;
      }

      .st69 {
        fill: #450558;
      }

      .st70 {
        fill: #1f968b;
      }

      .st71 {
        fill: #dde318;
      }

      .st2 {
        stroke: #000;
      }

      .st72 {
        fill: #6dcd59;
      }

      .st73 {
        fill: #2bb07f;
      }

      .st74 {
        fill: #472c7a;
      }

      .st75 {
        fill: #24878e;
      }

      .st76 {
        fill: #8cd646;
      }

      .st77 {
        fill: #2eb37c;
      }

      .st78 {
        fill: #d7e219;
      }

      .st79 {
        fill: #f1e51d;
      }

      .st80 {
        fill: #35b779;
      }

      .st81 {
        fill: #78d152;
      }

      .st82 {
        fill: #c9e020;
      }

      .st83 {
        fill: #2f6b8e;
      }

      .st84 {
        fill: #3b528b;
      }

      .st85 {
        fill: #46085c;
      }

      .st86 {
        fill: #99d83d;
      }

      .st87 {
        fill: #25ac82;
      }

      .st88 {
        fill: #355e8d;
      }

      .st89 {
        fill: #73d056;
      }

      .st90 {
        fill: #482576;
      }

      .st91 {
        fill: #32658e;
      }

      .st92 {
        fill: #85d54a;
      }

      .st93 {
        fill: #26818e;
      }

      .st95 {
        fill: #3dbc74;
      }

      .st96 {
        fill: #d0e11c;
      }

      .st97 {
        fill: #433e85;
      }

      .st98 {
        fill: #c2df23;
      }

      .st99 {
        fill: #24aa83;
      }

      .st100 {
        fill: #39558c;
      }

      .st101 {
        fill: #67cc5c;
      }

      .st113 {
        clip-path: url(#clippath);
      }

      .st102 {
        fill: #56c667;
      }

      .st103 {
        fill: #31b67b;
      }

      .st104 {
        letter-spacing: -.03em;
      }

      .st105 {
        fill: #39ba76;
      }

      .st106 {
        fill: #a0da39;
      }

      .st107 {
        letter-spacing: -.02em;
      }

      .st108 {
        fill: #482173;
      }
    </style>
    <clipPath id="clippath">
      <rect class="st0" x="77.41" y="-.35" width="150" height="55"/>
    </clipPath>
    <clipPath id="clippath-1">
      <rect class="st0" x="10.41" y="66.65" width="55" height="150"/>
    </clipPath>
  </defs>
  <g class="st113">
    <g>
      <polyline class="st2" points="204.91 54.65 204.91 42.97 219.91 42.97 219.91 54.65"/>
      <polyline class="st2" points="99.91 54.65 99.91 40.47 114.91 40.47 114.91 54.65"/>
      <polyline class="st2" points="144.91 54.65 144.91 40.37 159.91 40.37 159.91 54.65"/>
      <polyline class="st2" points="84.91 54.65 84.91 39.2 107.41 39.2 107.41 40.47"/>
      <polyline class="st2" points="189.91 54.65 189.91 36.13 212.41 36.13 212.41 42.97"/>
      <polyline class="st2" points="129.91 54.65 129.91 34.99 152.41 34.99 152.41 40.37"/>
      <polyline class="st2" points="174.91 54.65 174.91 25.06 201.16 25.06 201.16 36.13"/>
      <polyline class="st2" points="141.16 34.99 141.16 15.16 188.03 15.16 188.03 25.06"/>
      <polyline class="st2" points="96.16 39.2 96.16 2.27 164.59 2.27 164.59 15.16"/>
    </g>
  </g>
  <g class="st112">
    <g>
      <polyline class="st2" points="65.41 194.15 53.73 194.15 53.73 209.15 65.41 209.15"/>
      <polyline class="st2" points="65.41 89.15 51.23 89.15 51.23 104.15 65.41 104.15"/>
      <polyline class="st2" points="65.41 134.15 51.12 134.15 51.12 149.15 65.41 149.15"/>
      <polyline class="st2" points="65.41 74.15 49.96 74.15 49.96 96.65 51.23 96.65"/>
      <polyline class="st2" points="65.41 179.15 46.88 179.15 46.88 201.65 53.73 201.65"/>
      <polyline class="st2" points="65.41 119.15 45.75 119.15 45.75 141.65 51.12 141.65"/>
      <polyline class="st2" points="65.41 164.15 35.82 164.15 35.82 190.4 46.88 190.4"/>
      <polyline class="st2" points="45.75 130.4 25.91 130.4 25.91 177.27 35.82 177.27"/>
      <polyline class="st2" points="49.96 85.4 13.02 85.4 13.02 153.84 25.91 153.84"/>
    </g>
  </g>
  <g>
    <rect class="st36" x="77.41" y="66.65" width="15" height="15"/>
    <rect class="st1" x="77.41" y="66.65" width="15" height="15"/>
  </g>
  <g>
    <rect class="st91" x="77.41" y="81.65" width="15" height="15"/>
    <rect class="st1" x="77.41" y="81.65" width="15" height="15"/>
  </g>
  <g>
    <rect class="st88" x="77.41" y="96.65" width="15" height="15"/>
    <rect class="st1" x="77.41" y="96.65" width="15" height="15"/>
  </g>
  <g>
    <rect class="st87" x="77.41" y="111.65" width="15" height="15"/>
    <rect class="st1" x="77.41" y="111.65" width="15" height="15"/>
  </g>
  <g>
    <rect class="st20" x="77.41" y="126.65" width="15" height="15"/>
    <rect class="st1" x="77.41" y="126.65" width="15" height="15"/>
  </g>
  <g>
    <rect class="st80" x="77.41" y="141.65" width="15" height="15"/>
    <rect class="st1" x="77.41" y="141.65" width="15" height="15"/>
  </g>
  <g>
    <rect class="st89" x="77.41" y="156.65" width="15" height="15"/>
    <rect class="st1" x="77.41" y="156.65" width="15" height="15"/>
  </g>
  <g>
    <rect class="st29" x="77.41" y="171.65" width="15" height="15"/>
    <rect class="st1" x="77.41" y="171.65" width="15" height="15"/>
  </g>
  <g>
    <rect class="st28" x="77.41" y="186.65" width="15" height="15"/>
    <rect class="st1" x="77.41" y="186.65" width="15" height="15"/>
  </g>
  <g>
    <rect class="st37" x="77.41" y="201.65" width="15" height="15"/>
    <rect class="st1" x="77.41" y="201.65" width="15" height="15"/>
  </g>
  <g>
    <rect class="st91" x="92.41" y="66.65" width="15" height="15"/>
    <rect class="st1" x="92.41" y="66.65" width="15" height="15"/>
  </g>
  <g>
    <rect class="st36" x="92.41" y="81.65" width="15" height="15"/>
    <rect class="st1" x="92.41" y="81.65" width="15" height="15"/>
  </g>
  <g>
    <rect class="st17" x="92.41" y="96.65" width="15" height="15"/>
    <rect class="st1" x="92.41" y="96.65" width="15" height="15"/>
  </g>
  <g>
    <rect class="st99" x="92.41" y="111.65" width="15" height="15"/>
    <rect class="st1" x="92.41" y="111.65" width="15" height="15"/>
  </g>
  <g>
    <rect class="st24" x="92.41" y="126.65" width="15" height="15"/>
    <rect class="st1" x="92.41" y="126.65" width="15" height="15"/>
  </g>
  <g>
    <rect class="st72" x="92.41" y="141.65" width="15" height="15"/>
    <rect class="st1" x="92.41" y="141.65" width="15" height="15"/>
  </g>
  <g>
    <rect class="st48" x="92.41" y="156.65" width="15" height="15"/>
    <rect class="st1" x="92.41" y="156.65" width="15" height="15"/>
  </g>
  <g>
    <rect class="st75" x="92.41" y="171.65" width="15" height="15"/>
    <rect class="st1" x="92.41" y="171.65" width="15" height="15"/>
  </g>
  <g>
    <rect class="st41" x="92.41" y="186.65" width="15" height="15"/>
    <rect class="st1" x="92.41" y="186.65" width="15" height="15"/>
  </g>
  <g>
    <rect class="st73" x="92.41" y="201.65" width="15" height="15"/>
    <rect class="st1" x="92.41" y="201.65" width="15" height="15"/>
  </g>
  <g>
    <rect class="st88" x="107.41" y="66.65" width="15" height="15"/>
    <rect class="st1" x="107.41" y="66.65" width="15" height="15"/>
  </g>
  <g>
    <rect class="st17" x="107.41" y="81.65" width="15" height="15"/>
    <rect class="st1" x="107.41" y="81.65" width="15" height="15"/>
  </g>
  <g>
    <rect class="st36" x="107.41" y="96.65" width="15" height="15"/>
    <rect class="st1" x="107.41" y="96.65" width="15" height="15"/>
  </g>
  <g>
    <rect class="st10" x="107.41" y="111.65" width="15" height="15"/>
    <rect class="st1" x="107.41" y="111.65" width="15" height="15"/>
  </g>
  <g>
    <rect class="st87" x="107.41" y="126.65" width="15" height="15"/>
    <rect class="st1" x="107.41" y="126.65" width="15" height="15"/>
  </g>
  <g>
    <rect class="st101" x="107.41" y="141.65" width="15" height="15"/>
    <rect class="st1" x="107.41" y="141.65" width="15" height="15"/>
  </g>
  <g>
    <rect class="st61" x="107.41" y="156.65" width="15" height="15"/>
    <rect class="st1" x="107.41" y="156.65" width="15" height="15"/>
  </g>
  <g>
    <rect class="st12" x="107.41" y="171.65" width="15" height="15"/>
    <rect class="st1" x="107.41" y="171.65" width="15" height="15"/>
  </g>
  <g>
    <rect class="st53" x="107.41" y="186.65" width="15" height="15"/>
    <rect class="st1" x="107.41" y="186.65" width="15" height="15"/>
  </g>
  <g>
    <rect class="st51" x="107.41" y="201.65" width="15" height="15"/>
    <rect class="st1" x="107.41" y="201.65" width="15" height="15"/>
  </g>
  <g>
    <rect class="st87" x="122.41" y="66.65" width="15" height="15"/>
    <rect class="st1" x="122.41" y="66.65" width="15" height="15"/>
  </g>
  <g>
    <rect class="st99" x="122.41" y="81.65" width="15" height="15"/>
    <rect class="st1" x="122.41" y="81.65" width="15" height="15"/>
  </g>
  <g>
    <rect class="st10" x="122.41" y="96.65" width="15" height="15"/>
    <rect class="st1" x="122.41" y="96.65" width="15" height="15"/>
  </g>
  <g>
    <rect class="st36" x="122.41" y="111.65" width="15" height="15"/>
    <rect class="st1" x="122.41" y="111.65" width="15" height="15"/>
  </g>
  <g>
    <rect class="st21" x="122.41" y="126.65" width="15" height="15"/>
    <rect class="st1" x="122.41" y="126.65" width="15" height="15"/>
  </g>
  <g>
    <rect class="st68" x="122.41" y="141.65" width="15" height="15"/>
    <rect class="st1" x="122.41" y="141.65" width="15" height="15"/>
  </g>
  <g>
    <rect class="st72" x="122.41" y="156.65" width="15" height="15"/>
    <rect class="st1" x="122.41" y="156.65" width="15" height="15"/>
  </g>
  <g>
    <rect class="st50" x="122.41" y="171.65" width="15" height="15"/>
    <rect class="st1" x="122.41" y="171.65" width="15" height="15"/>
  </g>
  <g>
    <rect class="st95" x="122.41" y="186.65" width="15" height="15"/>
    <rect class="st1" x="122.41" y="186.65" width="15" height="15"/>
  </g>
  <g>
    <rect class="st87" x="122.41" y="201.65" width="15" height="15"/>
    <rect class="st1" x="122.41" y="201.65" width="15" height="15"/>
  </g>
  <g>
    <rect class="st20" x="137.41" y="66.65" width="15" height="15"/>
    <rect class="st1" x="137.41" y="66.65" width="15" height="15"/>
  </g>
  <g>
    <rect class="st24" x="137.41" y="81.65" width="15" height="15"/>
    <rect class="st1" x="137.41" y="81.65" width="15" height="15"/>
  </g>
  <g>
    <rect class="st87" x="137.41" y="96.65" width="15" height="15"/>
    <rect class="st1" x="137.41" y="96.65" width="15" height="15"/>
  </g>
  <g>
    <rect class="st21" x="137.41" y="111.65" width="15" height="15"/>
    <rect class="st1" x="137.41" y="111.65" width="15" height="15"/>
  </g>
  <g>
    <rect class="st36" x="137.41" y="126.65" width="15" height="15"/>
    <rect class="st1" x="137.41" y="126.65" width="15" height="15"/>
  </g>
  <g>
    <rect class="st88" x="137.41" y="141.65" width="15" height="15"/>
    <rect class="st1" x="137.41" y="141.65" width="15" height="15"/>
  </g>
  <g>
    <rect class="st64" x="137.41" y="156.65" width="15" height="15"/>
    <rect class="st1" x="137.41" y="156.65" width="15" height="15"/>
  </g>
  <g>
    <rect class="st19" x="137.41" y="171.65" width="15" height="15"/>
    <rect class="st1" x="137.41" y="171.65" width="15" height="15"/>
  </g>
  <g>
    <rect class="st68" x="137.41" y="186.65" width="15" height="15"/>
    <rect class="st1" x="137.41" y="186.65" width="15" height="15"/>
  </g>
  <g>
    <rect class="st37" x="137.41" y="201.65" width="15" height="15"/>
    <rect class="st1" x="137.41" y="201.65" width="15" height="15"/>
  </g>
  <g>
    <rect class="st80" x="152.41" y="66.65" width="15" height="15"/>
    <rect class="st1" x="152.41" y="66.65" width="15" height="15"/>
  </g>
  <g>
    <rect class="st72" x="152.41" y="81.65" width="15" height="15"/>
    <rect class="st1" x="152.41" y="81.65" width="15" height="15"/>
  </g>
  <g>
    <rect class="st101" x="152.41" y="96.65" width="15" height="15"/>
    <rect class="st1" x="152.41" y="96.65" width="15" height="15"/>
  </g>
  <g>
    <rect class="st68" x="152.41" y="111.65" width="15" height="15"/>
    <rect class="st1" x="152.41" y="111.65" width="15" height="15"/>
  </g>
  <g>
    <rect class="st88" x="152.41" y="126.65" width="15" height="15"/>
    <rect class="st1" x="152.41" y="126.65" width="15" height="15"/>
  </g>
  <g>
    <rect class="st36" x="152.41" y="141.65" width="15" height="15"/>
    <rect class="st1" x="152.41" y="141.65" width="15" height="15"/>
  </g>
  <g>
    <rect class="st20" x="152.41" y="156.65" width="15" height="15"/>
    <rect class="st1" x="152.41" y="156.65" width="15" height="15"/>
  </g>
  <g>
    <rect class="st5" x="152.41" y="171.65" width="15" height="15"/>
    <rect class="st1" x="152.41" y="171.65" width="15" height="15"/>
  </g>
  <g>
    <rect class="st67" x="152.41" y="186.65" width="15" height="15"/>
    <rect class="st1" x="152.41" y="186.65" width="15" height="15"/>
  </g>
  <g>
    <rect class="st19" x="152.41" y="201.65" width="15" height="15"/>
    <rect class="st1" x="152.41" y="201.65" width="15" height="15"/>
  </g>
  <g>
    <rect class="st89" x="167.41" y="66.65" width="15" height="15"/>
    <rect class="st1" x="167.41" y="66.65" width="15" height="15"/>
  </g>
  <g>
    <rect class="st48" x="167.41" y="81.65" width="15" height="15"/>
    <rect class="st1" x="167.41" y="81.65" width="15" height="15"/>
  </g>
  <g>
    <rect class="st61" x="167.41" y="96.65" width="15" height="15"/>
    <rect class="st1" x="167.41" y="96.65" width="15" height="15"/>
  </g>
  <g>
    <rect class="st72" x="167.41" y="111.65" width="15" height="15"/>
    <rect class="st1" x="167.41" y="111.65" width="15" height="15"/>
  </g>
  <g>
    <rect class="st64" x="167.41" y="126.65" width="15" height="15"/>
    <rect class="st1" x="167.41" y="126.65" width="15" height="15"/>
  </g>
  <g>
    <rect class="st20" x="167.41" y="141.65" width="15" height="15"/>
    <rect class="st1" x="167.41" y="141.65" width="15" height="15"/>
  </g>
  <g>
    <rect class="st36" x="167.41" y="156.65" width="15" height="15"/>
    <rect class="st1" x="167.41" y="156.65" width="15" height="15"/>
  </g>
  <g>
    <rect class="st80" x="167.41" y="171.65" width="15" height="15"/>
    <rect class="st1" x="167.41" y="171.65" width="15" height="15"/>
  </g>
  <g>
    <rect class="st60" x="167.41" y="186.65" width="15" height="15"/>
    <rect class="st1" x="167.41" y="186.65" width="15" height="15"/>
  </g>
  <g>
    <rect class="st68" x="167.41" y="201.65" width="15" height="15"/>
    <rect class="st1" x="167.41" y="201.65" width="15" height="15"/>
  </g>
  <g>
    <rect class="st29" x="182.41" y="66.65" width="15" height="15"/>
    <rect class="st1" x="182.41" y="66.65" width="15" height="15"/>
  </g>
  <g>
    <rect class="st75" x="182.41" y="81.65" width="15" height="15"/>
    <rect class="st1" x="182.41" y="81.65" width="15" height="15"/>
  </g>
  <g>
    <rect class="st12" x="182.41" y="96.65" width="15" height="15"/>
    <rect class="st1" x="182.41" y="96.65" width="15" height="15"/>
  </g>
  <g>
    <rect class="st50" x="182.41" y="111.65" width="15" height="15"/>
    <rect class="st1" x="182.41" y="111.65" width="15" height="15"/>
  </g>
  <g>
    <rect class="st19" x="182.41" y="126.65" width="15" height="15"/>
    <rect class="st1" x="182.41" y="126.65" width="15" height="15"/>
  </g>
  <g>
    <rect class="st5" x="182.41" y="141.65" width="15" height="15"/>
    <rect class="st1" x="182.41" y="141.65" width="15" height="15"/>
  </g>
  <g>
    <rect class="st80" x="182.41" y="156.65" width="15" height="15"/>
    <rect class="st1" x="182.41" y="156.65" width="15" height="15"/>
  </g>
  <g>
    <rect class="st36" x="182.41" y="171.65" width="15" height="15"/>
    <rect class="st1" x="182.41" y="171.65" width="15" height="15"/>
  </g>
  <g>
    <rect class="st33" x="182.41" y="186.65" width="15" height="15"/>
    <rect class="st1" x="182.41" y="186.65" width="15" height="15"/>
  </g>
  <g>
    <rect class="st28" x="182.41" y="201.65" width="15" height="15"/>
    <rect class="st1" x="182.41" y="201.65" width="15" height="15"/>
  </g>
  <g>
    <rect class="st28" x="197.41" y="66.65" width="15" height="15"/>
    <rect class="st1" x="197.41" y="66.65" width="15" height="15"/>
  </g>
  <g>
    <rect class="st41" x="197.41" y="81.65" width="15" height="15"/>
    <rect class="st1" x="197.41" y="81.65" width="15" height="15"/>
  </g>
  <g>
    <rect class="st53" x="197.41" y="96.65" width="15" height="15"/>
    <rect class="st1" x="197.41" y="96.65" width="15" height="15"/>
  </g>
  <g>
    <rect class="st95" x="197.41" y="111.65" width="15" height="15"/>
    <rect class="st1" x="197.41" y="111.65" width="15" height="15"/>
  </g>
  <g>
    <rect class="st68" x="197.41" y="126.65" width="15" height="15"/>
    <rect class="st1" x="197.41" y="126.65" width="15" height="15"/>
  </g>
  <g>
    <rect class="st67" x="197.41" y="141.65" width="15" height="15"/>
    <rect class="st1" x="197.41" y="141.65" width="15" height="15"/>
  </g>
  <g>
    <rect class="st60" x="197.41" y="156.65" width="15" height="15"/>
    <rect class="st1" x="197.41" y="156.65" width="15" height="15"/>
  </g>
  <g>
    <rect class="st33" x="197.41" y="171.65" width="15" height="15"/>
    <rect class="st1" x="197.41" y="171.65" width="15" height="15"/>
  </g>
  <g>
    <rect class="st36" x="197.41" y="186.65" width="15" height="15"/>
    <rect class="st1" x="197.41" y="186.65" width="15" height="15"/>
  </g>
  <g>
    <rect class="st23" x="197.41" y="201.65" width="15" height="15"/>
    <rect class="st1" x="197.41" y="201.65" width="15" height="15"/>
  </g>
  <g>
    <rect class="st37" x="212.41" y="66.65" width="15" height="15"/>
    <rect class="st1" x="212.41" y="66.65" width="15" height="15"/>
  </g>
  <g>
    <rect class="st73" x="212.41" y="81.65" width="15" height="15"/>
    <rect class="st1" x="212.41" y="81.65" width="15" height="15"/>
  </g>
  <g>
    <rect class="st51" x="212.41" y="96.65" width="15" height="15"/>
    <rect class="st1" x="212.41" y="96.65" width="15" height="15"/>
  </g>
  <g>
    <rect class="st87" x="212.41" y="111.65" width="15" height="15"/>
    <rect class="st1" x="212.41" y="111.65" width="15" height="15"/>
  </g>
  <g>
    <rect class="st37" x="212.41" y="126.65" width="15" height="15"/>
    <rect class="st1" x="212.41" y="126.65" width="15" height="15"/>
  </g>
  <g>
    <rect class="st19" x="212.41" y="141.65" width="15" height="15"/>
    <rect class="st1" x="212.41" y="141.65" width="15" height="15"/>
  </g>
  <g>
    <rect class="st68" x="212.41" y="156.65" width="15" height="15"/>
    <rect class="st1" x="212.41" y="156.65" width="15" height="15"/>
  </g>
  <g>
    <rect class="st28" x="212.41" y="171.65" width="15" height="15"/>
    <rect class="st1" x="212.41" y="171.65" width="15" height="15"/>
  </g>
  <g>
    <rect class="st23" x="212.41" y="186.65" width="15" height="15"/>
    <rect class="st1" x="212.41" y="186.65" width="15" height="15"/>
  </g>
  <g>
    <rect class="st36" x="212.41" y="201.65" width="15" height="15"/>
    <rect class="st1" x="212.41" y="201.65" width="15" height="15"/>
  </g>
  <g class="st42">
    <text class="st94" transform="translate(82.03 219.65) rotate(90)"><tspan x="0" y="0">Hyb2</tspan></text>
  </g>
  <g class="st42">
    <text class="st94" transform="translate(97.03 219.65) rotate(90)"><tspan x="0" y="0">Hyb3</tspan></text>
  </g>
  <g class="st42">
    <text class="st94" transform="translate(112.03 219.65) rotate(90)"><tspan x="0" y="0">Bmus1</tspan></text>
  </g>
  <g class="st42">
    <text class="st94" transform="translate(127.03 219.65) rotate(90)"><tspan x="0" y="0">Hyb1</tspan></text>
  </g>
  <g class="st42">
    <text class="st94" transform="translate(142.03 219.65) rotate(90)"><tspan x="0" y="0">Bphy3</tspan></text>
  </g>
  <g class="st42">
    <text class="st94" transform="translate(157.03 219.65) rotate(90)"><tspan x="0" y="0">Bphy5</tspan></text>
  </g>
  <g class="st42">
    <text class="st94" transform="translate(172.03 219.65) rotate(90)"><tspan x="0" y="0">Bphy4</tspan></text>
  </g>
  <g class="st42">
    <text class="st94" transform="translate(187.03 219.65) rotate(90)"><tspan x="0" y="0">Bmus2</tspan></text>
  </g>
  <g class="st42">
    <text class="st94" transform="translate(202.03 219.65) rotate(90)"><tspan x="0" y="0">Bphy1</tspan></text>
  </g>
  <g class="st42">
    <text class="st94" transform="translate(217.03 219.65) rotate(90)"><tspan x="0" y="0">Bphy2</tspan></text>
  </g>
  <g class="st42">
    <text class="st94" transform="translate(230.41 77.02)"><tspan x="0" y="0">Hyb2</tspan></text>
  </g>
  <g class="st42">
    <text class="st94" transform="translate(230.41 92.02)"><tspan x="0" y="0">Hyb3</tspan></text>
  </g>
  <g class="st42">
    <text class="st94" transform="translate(230.41 107.02)"><tspan x="0" y="0">Bmus1</tspan></text>
  </g>
  <g class="st42">
    <text class="st94" transform="translate(230.41 122.02)"><tspan x="0" y="0">Hyb1</tspan></text>
  </g>
  <g class="st42">
    <text class="st94" transform="translate(230.41 137.02)"><tspan x="0" y="0">Bphy3</tspan></text>
  </g>
  <g class="st42">
    <text class="st94" transform="translate(230.41 152.02)"><tspan x="0" y="0">Bphy5</tspan></text>
  </g>
  <g class="st42">
    <text class="st94" transform="translate(230.41 167.02)"><tspan x="0" y="0">Bphy4</tspan></text>
  </g>
  <g class="st42">
    <text class="st94" transform="translate(230.41 182.02)"><tspan x="0" y="0">Bmus2</tspan></text>
  </g>
  <g class="st42">
    <text class="st94" transform="translate(230.41 197.02)"><tspan x="0" y="0">Bphy1</tspan></text>
  </g>
  <g class="st42">
    <text class="st94" transform="translate(230.41 212.02)"><tspan x="0" y="0">Bphy2</tspan></text>
  </g>
  <rect class="st110" x="77.41" y="55.65" width="15" height="8"/>
  <rect class="st1" x="77.41" y="55.65" width="15" height="8"/>
  <rect class="st110" x="92.41" y="55.65" width="15" height="8"/>
  <rect class="st1" x="92.41" y="55.65" width="15" height="8"/>
  <rect class="st111" x="107.41" y="55.65" width="15" height="8"/>
  <rect class="st1" x="107.41" y="55.65" width="15" height="8"/>
  <rect class="st110" x="122.41" y="55.65" width="15" height="8"/>
  <rect class="st1" x="122.41" y="55.65" width="15" height="8"/>
  <rect class="st109" x="137.41" y="55.65" width="15" height="8"/>
  <rect class="st1" x="137.41" y="55.65" width="15" height="8"/>
  <rect class="st109" x="152.41" y="55.65" width="15" height="8"/>
  <rect class="st1" x="152.41" y="55.65" width="15" height="8"/>
  <rect class="st109" x="167.41" y="55.65" width="15" height="8"/>
  <rect class="st1" x="167.41" y="55.65" width="15" height="8"/>
  <rect class="st111" x="182.41" y="55.65" width="15" height="8"/>
  <rect class="st1" x="182.41" y="55.65" width="15" height="8"/>
  <rect class="st109" x="197.41" y="55.65" width="15" height="8"/>
  <rect class="st1" x="197.41" y="55.65" width="15" height="8"/>
  <rect class="st109" x="212.41" y="55.65" width="15" height="8"/>
  <rect class="st1" x="212.41" y="55.65" width="15" height="8"/>
  <rect class="st110" x="66.41" y="66.65" width="8" height="15"/>
  <rect class="st1" x="66.41" y="66.65" width="8" height="15"/>
  <rect class="st110" x="66.41" y="81.65" width="8" height="15"/>
  <rect class="st1" x="66.41" y="81.65" width="8" height="15"/>
  <rect class="st111" x="66.41" y="96.65" width="8" height="15"/>
  <rect class="st1" x="66.41" y="96.65" width="8" height="15"/>
  <rect class="st110" x="66.41" y="111.65" width="8" height="15"/>
  <rect class="st1" x="66.41" y="111.65" width="8" height="15"/>
  <rect class="st109" x="66.41" y="126.65" width="8" height="15"/>
  <rect class="st1" x="66.41" y="126.65" width="8" height="15"/>
  <rect class="st109" x="66.41" y="141.65" width="8" height="15"/>
  <rect class="st1" x="66.41" y="141.65" width="8" height="15"/>
  <rect class="st109" x="66.41" y="156.65" width="8" height="15"/>
  <rect class="st1" x="66.41" y="156.65" width="8" height="15"/>
  <rect class="st111" x="66.41" y="171.65" width="8" height="15"/>
  <rect class="st1" x="66.41" y="171.65" width="8" height="15"/>
  <rect class="st109" x="66.41" y="186.65" width="8" height="15"/>
  <rect class="st1" x="66.41" y="186.65" width="8" height="15"/>
  <rect class="st109" x="66.41" y="201.65" width="8" height="15"/>
  <rect class="st1" x="66.41" y="201.65" width="8" height="15"/>
  <rect class="st111" x="281.76" y="168.02" width="11.49" height="11.49"/>
  <rect class="st1" x="281.76" y="168.02" width="11.49" height="11.49"/>
  <rect class="st110" x="281.76" y="179.51" width="11.49" height="11.49"/>
  <rect class="st1" x="281.76" y="179.51" width="11.49" height="11.49"/>
  <rect class="st109" x="281.76" y="190.99" width="11.49" height="11.49"/>
  <rect class="st1" x="281.76" y="190.99" width="11.49" height="11.49"/>
  <g class="st42">
    <text class="st107" transform="translate(295.54 176.64)"><tspan x="0" y="0">Blue</tspan></text>
  </g>
  <g class="st42">
    <text class="st104" transform="translate(295.54 188.12)"><tspan x="0" y="0">H</tspan></text>
    <text class="st94" transform="translate(301.52 188.12)"><tspan x="0" y="0">yb</tspan></text>
    <text class="st55" transform="translate(309.97 188.12)"><tspan x="0" y="0">r</tspan></text>
    <text class="st94" transform="translate(312.75 188.12)"><tspan x="0" y="0">id</tspan></text>
  </g>
  <g class="st42">
    <text class="st94" transform="translate(295.54 199.61)"><tspan x="0" y="0">Fin</tspan></text>
  </g>
  <rect class="st36" x="282.73" y="142.24" width="10" height=".58"/>
  <rect class="st69" x="282.73" y="141.65" width="10" height=".58"/>
  <rect class="st85" x="282.73" y="141.07" width="10" height=".58"/>
  <rect class="st66" x="282.73" y="140.49" width="10" height=".58"/>
  <rect class="st47" x="282.73" y="139.91" width="10" height=".58"/>
  <rect class="st40" x="282.73" y="139.33" width="10" height=".58"/>
  <rect class="st45" x="282.73" y="138.75" width="10" height=".58"/>
  <rect class="st13" x="282.73" y="138.17" width="10" height=".58"/>
  <rect class="st63" x="282.73" y="137.59" width="10" height=".58"/>
  <rect class="st108" x="282.73" y="137.01" width="10" height=".58"/>
  <rect class="st90" x="282.73" y="136.43" width="10" height=".58"/>
  <rect class="st43" x="282.73" y="135.85" width="10" height=".58"/>
  <rect class="st74" x="282.73" y="135.27" width="10" height=".58"/>
  <rect class="st25" x="282.73" y="134.69" width="10" height=".58"/>
  <rect class="st54" x="282.73" y="134.11" width="10" height=".58"/>
  <rect class="st3" x="282.73" y="133.53" width="10" height=".58"/>
  <rect class="st22" x="282.73" y="132.95" width="10" height=".58"/>
  <rect class="st6" x="282.73" y="132.37" width="10" height=".58"/>
  <rect class="st97" x="282.73" y="131.79" width="10" height=".58"/>
  <rect class="st56" x="282.73" y="131.21" width="10" height=".58"/>
  <rect class="st15" x="282.73" y="130.63" width="10" height=".58"/>
  <rect class="st30" x="282.73" y="130.05" width="10" height=".58"/>
  <rect class="st7" x="282.73" y="129.46" width="10" height=".58"/>
  <rect class="st23" x="282.73" y="128.88" width="10" height=".58"/>
  <rect class="st57" x="282.73" y="128.3" width="10" height=".58"/>
  <rect class="st84" x="282.73" y="127.72" width="10" height=".58"/>
  <rect class="st100" x="282.73" y="127.14" width="10" height=".58"/>
  <rect class="st26" x="282.73" y="126.56" width="10" height=".58"/>
  <rect class="st17" x="282.73" y="125.98" width="10" height=".58"/>
  <rect class="st88" x="282.73" y="125.4" width="10" height=".58"/>
  <rect class="st16" x="282.73" y="124.82" width="10" height=".58"/>
  <rect class="st33" x="282.73" y="124.24" width="10" height=".58"/>
  <rect class="st91" x="282.73" y="123.66" width="10" height=".58"/>
  <rect class="st29" x="282.73" y="123.08" width="10" height=".58"/>
  <rect class="st83" x="282.73" y="122.5" width="10" height=".58"/>
  <rect class="st59" x="282.73" y="121.92" width="10" height=".58"/>
  <rect class="st21" x="282.73" y="121.34" width="10" height=".58"/>
  <rect class="st28" x="282.73" y="120.76" width="10" height=".58"/>
  <rect class="st68" x="282.73" y="120.18" width="10" height=".58"/>
  <rect class="st39" x="282.73" y="119.6" width="10" height=".58"/>
  <rect class="st19" x="282.73" y="119.02" width="10" height=".58"/>
  <rect class="st35" x="282.73" y="118.44" width="10" height=".58"/>
  <rect class="st37" x="282.73" y="117.85" width="10" height=".58"/>
  <rect class="st93" x="282.73" y="117.27" width="10" height=".58"/>
  <rect class="st62" x="282.73" y="116.69" width="10" height=".58"/>
  <rect class="st67" x="282.73" y="116.11" width="10" height=".58"/>
  <rect class="st75" x="282.73" y="115.53" width="10" height=".58"/>
  <rect class="st20" x="282.73" y="114.95" width="10" height=".58"/>
  <rect class="st60" x="282.73" y="114.37" width="10" height=".58"/>
  <rect class="st65" x="282.73" y="113.79" width="10" height=".58"/>
  <rect class="st64" x="282.73" y="113.21" width="10" height=".58"/>
  <rect class="st12" x="282.73" y="112.63" width="10" height=".58"/>
  <rect class="st70" x="282.73" y="112.05" width="10" height=".58"/>
  <rect class="st53" x="282.73" y="111.47" width="10" height=".58"/>
  <rect class="st51" x="282.73" y="110.89" width="10" height=".58"/>
  <rect class="st4" x="282.73" y="110.31" width="10" height=".58"/>
  <rect class="st31" x="282.73" y="109.73" width="10" height=".58"/>
  <rect class="st24" x="282.73" y="109.15" width="10" height=".58"/>
  <rect class="st5" x="282.73" y="108.57" width="10" height=".58"/>
  <rect class="st41" x="282.73" y="107.99" width="10" height=".58"/>
  <rect class="st99" x="282.73" y="107.41" width="10" height=".58"/>
  <rect class="st87" x="282.73" y="106.83" width="10" height=".58"/>
  <rect class="st46" x="282.73" y="106.25" width="10" height=".58"/>
  <rect class="st73" x="282.73" y="105.66" width="10" height=".58"/>
  <rect class="st77" x="282.73" y="105.08" width="10" height=".58"/>
  <rect class="st103" x="282.73" y="104.5" width="10" height=".58"/>
  <rect class="st80" x="282.73" y="103.92" width="10" height=".58"/>
  <rect class="st105" x="282.73" y="103.34" width="10" height=".58"/>
  <rect class="st95" x="282.73" y="102.76" width="10" height=".58"/>
  <rect class="st50" x="282.73" y="102.18" width="10" height=".58"/>
  <rect class="st14" x="282.73" y="101.6" width="10" height=".58"/>
  <rect class="st18" x="282.73" y="101.02" width="10" height=".58"/>
  <rect class="st32" x="282.73" y="100.44" width="10" height=".58"/>
  <rect class="st102" x="282.73" y="99.86" width="10" height=".58"/>
  <rect class="st10" x="282.73" y="99.28" width="10" height=".58"/>
  <rect class="st9" x="282.73" y="98.7" width="10" height=".58"/>
  <rect class="st101" x="282.73" y="98.12" width="10" height=".58"/>
  <rect class="st72" x="282.73" y="97.54" width="10" height=".58"/>
  <rect class="st89" x="282.73" y="96.96" width="10" height=".58"/>
  <rect class="st81" x="282.73" y="96.38" width="10" height=".58"/>
  <rect class="st34" x="282.73" y="95.8" width="10" height=".58"/>
  <rect class="st92" x="282.73" y="95.22" width="10" height=".58"/>
  <rect class="st76" x="282.73" y="94.64" width="10" height=".58"/>
  <rect class="st58" x="282.73" y="94.05" width="10" height=".58"/>
  <rect class="st86" x="282.73" y="93.47" width="10" height=".58"/>
  <rect class="st106" x="282.73" y="92.89" width="10" height=".58"/>
  <rect class="st44" x="282.73" y="92.31" width="10" height=".58"/>
  <rect class="st49" x="282.73" y="91.73" width="10" height=".58"/>
  <rect class="st61" x="282.73" y="91.15" width="10" height=".58"/>
  <rect class="st52" x="282.73" y="90.57" width="10" height=".58"/>
  <rect class="st98" x="282.73" y="89.99" width="10" height=".58"/>
  <rect class="st82" x="282.73" y="89.41" width="10" height=".58"/>
  <rect class="st96" x="282.73" y="88.83" width="10" height=".58"/>
  <rect class="st78" x="282.73" y="88.25" width="10" height=".58"/>
  <rect class="st71" x="282.73" y="87.67" width="10" height=".58"/>
  <rect class="st8" x="282.73" y="87.09" width="10" height=".58"/>
  <rect class="st11" x="282.73" y="86.51" width="10" height=".58"/>
  <rect class="st79" x="282.73" y="85.93" width="10" height=".58"/>
  <rect class="st38" x="282.73" y="85.35" width="10" height=".58"/>
  <rect class="st48" x="282.73" y="84.77" width="10" height=".58"/>
  <g class="st42">
    <text class="st94" transform="translate(297.14 91.05)"><tspan x="0" y="0">High</tspan></text>
  </g>
  <g class="st42">
    <text class="st94" transform="translate(296.73 145.69)"><tspan x="0" y="0">Low</tspan></text>
  </g>
  <g class="st42">
    <text class="st27" transform="translate(280.39 163.63)"><tspan x="0" y="0">Class</tspan></text>
  </g>
  <g class="st42">
    <text class="st27" transform="translate(281.1 80.28)"><tspan x="0" y="0">Dissimilarity</tspan></text>
  </g>
</svg>